<svg xmlns="http://www.w3.org/2000/svg" width="110vw" height="auto" viewBox="40 0 2600 300" fill="red">
    <path
        d="M32.4432 152.232C66.4653 152.232 166.409 91.5582 206.082 79.9123C282.266 57.5483 359.975 39.4801 443.144 58.9775C735.13 127.428 988.908 268.597 1328.81 211.019C1588.52 167.026 1820.53 45.8503 2081.15 6.74646C2216.75 -13.5979 2344.11 38.0428 2475.22 38.0428C2514.36 38.0428 2675.73 81.4603 2700.17 99.7897C2722.05 116.205 2691.15 295.26 2691.15 329.226C2691.15 333.648 1352.14 327.323 1276.95 327.323C902.22 327.323 527.13 338.742 153.088 338.742C54.4889 338.742 2 354.559 2 274.034C2 239.402 12.1477 205.573 12.1477 171.475C12.1477 136.248 40.9938 162.241 52.7386 144.62"
        fill="red" />
</svg>